<svg width="32" height="32" viewBox="0 0 32 32" fill="none" xmlns="http://www.w3.org/2000/svg">
  <rect width="32" height="32" rx="16" fill="#00a651"/>
  <g stroke="white" stroke-width="2.5" stroke-linecap="round" stroke-linejoin="round" fill="none">
    <path d="M7 21a2 2 0 1 0 0-4 2 2 0 0 0 0 4z"/>
    <path d="M21 21a2 2 0 1 0 0-4 2 2 0 0 0 0 4z"/>
    <path d="M14 21h-2a4 4 0 0 1-4-4V9a2 2 0 0 1 2-2h4a2 2 0 0 1 2 2v1"/>
    <path d="M14 21h2a4 4 0 0 0 4-4v-5a2 2 0 0 0-2-2h-4"/>
    <path d="M10 13h8"/>
  </g>
</svg>
